<svg xmlns="http://www.w3.org/2000/svg" width="51.469" height="49.375" viewBox="0 0 51.469 49.375">
  <defs>
    <style>
      .cls-1 {
        fill: #fff;
        fill-rule: evenodd;
      }
    </style>
  </defs>
  <path id="heart" class="cls-1" d="M132.97,573.987c-4.07,0-15.908-15.874-22.6-25.336-0.028-.041-0.054-0.083-0.078-0.124a14.744,14.744,0,0,1-2.975-10.214,15.179,15.179,0,0,1,16.406-13.629c3.957,0.332,7.215,2.907,9.266,5.033,2.05-2.126,5.306-4.7,9.265-5.033a15.2,15.2,0,0,1,16.406,13.629,14.747,14.747,0,0,1-3.117,10.4C148.746,558.121,136.729,573.987,132.97,573.987Zm-20-26.863c7.769,10.963,17.478,23.022,19.971,23.86,2.424-.959,12.273-13.122,20.164-24.051a11.851,11.851,0,0,0,2.533-8.366,12.181,12.181,0,0,0-13.136-10.913c-3.72.313-6.831,3.428-8.354,5.257a1.578,1.578,0,0,1-2.337,0c-1.524-1.83-4.635-4.946-8.354-5.258a12.159,12.159,0,0,0-13.135,10.913,11.812,11.812,0,0,0,2.5,8.321A1.487,1.487,0,0,1,112.975,547.124Z" transform="translate(-107.25 -524.625)"/>
</svg>
