<svg xmlns="http://www.w3.org/2000/svg" width="39" height="42.563" viewBox="0 0 39 42.563">
  <defs>
    <style>
      .cls-1 {
        fill: #fff;
        fill-rule: evenodd;
      }
    </style>
  </defs>
  <path id="Gift" class="cls-1" d="M422.012,395.993v0.019l-1.473.011H409v15.942h10.016a1,1,0,0,0,1-1V396.027l0.527,0h1.473v14.942a3,3,0,0,1-3,3H390a3,3,0,0,1-3-3V396.033l-2,.061v-7.059a2.869,2.869,0,0,1,2.838-3h33.177a3,3,0,0,1,3,3v6.987Zm-22-7.958h-12.18a0.875,0.875,0,0,0-.838,1v4.9h13.018v-5.9Zm0,7.988H387l2,0.018v14.924a1,1,0,0,0,1,1h10.018V396.023ZM402,411.965h5.019v-23.93H402v23.93Zm20.016-22.93a1,1,0,0,0-1-1H409v5.9h13.016v-4.9Zm0,6.977v0.011h0v-0.011h0ZM413.94,384H395.06a5.177,5.177,0,0,1-4.016-1.866,6.831,6.831,0,0,1-1.564-5.232,5.971,5.971,0,0,1,6.519-5.5c3.542,0.118,7.4,5.53,8.512,7.207,1.31-1.992,4.995-7.091,8.489-7.207a5.981,5.981,0,0,1,6.52,5.5,6.837,6.837,0,0,1-1.565,5.234A5.177,5.177,0,0,1,413.94,384Zm-17.707-10.225-0.226,0c-3.055,0-3.809,1.681-4.066,3.414a4.817,4.817,0,0,0,1.1,3.634,3.31,3.31,0,0,0,2.554,1.2h7.491l0.3-.966C402.942,380.709,399.167,373.9,396.233,373.776Zm20.826,3.41c-0.257-1.733-.818-3.543-3.873-3.543l-0.226,0c-2.832.231-7.159,7-7.346,7.4l0.3,0.966h7.491a3.3,3.3,0,0,0,2.553-1.2A4.818,4.818,0,0,0,417.059,377.186Z" transform="translate(-385 -371.406)"/>
</svg>
